<mxfile host="app.diagrams.net" modified="2023-07-24T06:26:48.992Z" agent="Mozilla/5.0 (Windows NT 10.0; Win64; x64) AppleWebKit/537.36 (KHTML, like Gecko) Chrome/115.0.0.0 Safari/537.36" version="21.6.5" etag="HZNkHVf7HvOU9lbjU8YJ" type="github">
  <diagram name="페이지-1" id="JFGodf3TdRclGucsMhOa">
    <mxGraphModel>
      <root>
        <mxCell id="0" />
        <mxCell id="1" parent="0" />
      </root>
    </mxGraphModel>
  </diagram>
</mxfile>
